PathFileType	4	(X/Y/Z)	C:\Users\Basilio\Documents\Thesis Gigler\squatting_fais\c3dfiles\077\SJ_pre5\markers_experimental.trc
DataRate	CameraRate	NumFrames	NumMarkers	Units	OrigDataRate	OrigDataStartFrame	OrigNumFrames
200.000000	200.000000	4	60	mm	200.000000	1017	1356
Frame#	Time	FHD			LBHD			RBHD			C7			T10			CLAV			LSHO			LUUPA			LMUPA			LDUPA			LLEP			LMEP			LRAD			LUL			LRFIN			RSHO			RUPA1			RMUPA			RDUPA			RLEP			RMEP			RRAD			RUL			RUFIN			LASI			RASI			USACR			LSACR			RSACR			LTHI2			LTHI3			LTHI4			LLFC			LMFC			LTIB1			LTIB2			LTIB3			LTIB4			LLMAL			LHEE			LMT1			LMT2			LMT5			RTHI			RTHI2			RTHI3			RTHI4			RLFC			RMFC			RTIB1			RTIB2			RTIB3			RTIB4			RLMAL			RMMAL			RHEE			RMT1			RMT2			RMT5			LTHI1			
		X1	Y1	Z1	X2	Y2	Z2	X3	Y3	Z3	X4	Y4	Z4	X5	Y5	Z5	X6	Y6	Z6	X7	Y7	Z7	X8	Y8	Z8	X9	Y9	Z9	X10	Y10	Z10	X11	Y11	Z11	X12	Y12	Z12	X13	Y13	Z13	X14	Y14	Z14	X15	Y15	Z15	X16	Y16	Z16	X17	Y17	Z17	X18	Y18	Z18	X19	Y19	Z19	X20	Y20	Z20	X21	Y21	Z21	X22	Y22	Z22	X23	Y23	Z23	X24	Y24	Z24	X25	Y25	Z25	X26	Y26	Z26	X27	Y27	Z27	X28	Y28	Z28	X29	Y29	Z29	X30	Y30	Z30	X31	Y31	Z31	X32	Y32	Z32	X33	Y33	Z33	X34	Y34	Z34	X35	Y35	Z35	X36	Y36	Z36	X37	Y37	Z37	X38	Y38	Z38	X39	Y39	Z39	X40	Y40	Z40	X41	Y41	Z41	X42	Y42	Z42	X43	Y43	Z43	X44	Y44	Z44	X45	Y45	Z45	X46	Y46	Z46	X47	Y47	Z47	X48	Y48	Z48	X49	Y49	Z49	X50	Y50	Z50	X51	Y51	Z51	X52	Y52	Z52	X53	Y53	Z53	X54	Y54	Z54	X55	Y55	Z55	X56	Y56	Z56	X57	Y57	Z57	X58	Y58	Z58	X59	Y59	Z59	X60	Y60	Z60	

1018	5.085	-73.93629455566408	1725.034790039063	-924.7468261718752	-206.2063903808594	1604.811279296875	-991.6560668945315	-211.9270782470704	1600.87646484375	-846.0496215820315	-271.0257263183594	1511.562866210938	-917.691833496094	-397.626190185547	1203.408081054688	-910.1628417968752	-117.7710800170899	1412.0283203125	-917.6815185546877	-156.705078125	1459.806518554688	-1103.0537109375	-214.3931427001954	1340.612548828125	-1278.404663085938	-196.8430633544922	1293.73193359375	-1276.438354492188	-233.0327758789063	1293.848999023438	-1325.222778320313	-248.2120361328126	1232.940185546875	-1358.16943359375	-333.2876892089844	1242.002197265625	-1339.2890625	-328.0186462402344	1033.973754882813	-1138.37939453125	-298.6285095214844	973.8729248046877	-1184.541870117188	-299.9788818359376	1000.194946289063	-1075.893676757813	-116.0052337646485	1453.578735351563	-733.8713378906251	-198.0973510742188	1340.08056640625	-548.6116333007814	-189.8750915527344	1291.114868164063	-554.1438598632814	-225.9840698242188	1291.115112304688	-506.6656188964845	-249.8100128173829	1228.967651367188	-479.9299621582032	-334.7183837890626	1246.842895507813	-497.9707336425782	-347.4020080566407	1026.009155273438	-671.3028564453126	-297.4198303222657	973.9914550781252	-637.2250976562501	-303.9164123535157	1011.440246582031	-731.5103149414064	-282.9624633789063	968.8188476562502	-1040.369140625	-283.1769409179688	970.2285156250002	-780.305847167969	-447.7476196289064	1111.064575195313	-908.1560058593752	-464.3475341796876	1087.093994140625	-936.751892089844	-468.4215698242189	1085.48095703125	-881.3095703125002	-298.8245849609376	739.8859863281251	-1180.287841796875	-252.9091033935547	755.1570434570314	-1177.934204101563	-309.5632629394532	679.3427734375001	-1180.374389648438	-239.3007812500001	545.7810668945314	-1200.658935546875	-211.2650909423829	500.381805419922	-1083.141479492188	-274.2663879394532	315.3342285156251	-1170.182006835938	-331.9881286621094	299.3633728027344	-1237.579956054688	-299.9793090820313	279.7105102539063	-1210.465698242188	-335.6901550292969	205.3703002929688	-1186.930419921875	-445.3379821777345	130.1224365234375	-1231.39013671875	-502.678680419922	80.32249450683595	-1174.64501953125	-291.2770080566407	53.59753417968751	-1215.25146484375	-300.4074096679688	62.19681549072267	-1256.115966796875	-401.5660400390626	116.5800933837891	-1152.620361328125	-315.9345092773438	694.8543701171876	-646.7410278320314	-259.2891845703126	658.0250244140626	-628.4254760742189	-227.3520507812501	670.0221557617189	-630.7679443359376	-257.6281433105469	576.1986083984376	-633.4721069335939	-244.8457489013672	514.8934936523439	-621.8800048828126	-199.0445251464844	486.8195190429689	-737.7884521484376	-234.755355834961	370.9948425292969	-624.1256103515626	-328.3714599609376	322.2796020507813	-602.2703857421876	-287.1190795898438	301.8643798828126	-613.8331909179689	-295.0834350585938	257.8483886718751	-653.6705322265626	-431.1333312988282	117.5731201171875	-620.0344848632814	-387.355682373047	107.510238647461	-701.9974975585939	-489.2076110839845	72.40758514404298	-690.1665649414064	-277.3481140136719	59.41660308837892	-607.9755249023439	-293.3041992187501	61.51158523559572	-574.1412353515626	-326.7378540039063	43.18898010253907	-533.9890136718751	-350.7536010742188	801.023864746094	-1152.350708007813	
1019	5.09	-73.89475250244142	1727.018188476563	-925.027526855469	-205.8662414550782	1606.502807617188	-991.8679809570315	-211.5069427490235	1603.924682617188	-846.2861938476565	-270.7864074707032	1513.329956054688	-917.9069824218752	-397.3596191406251	1205.267578125	-910.4314575195315	-117.5315399169922	1413.8798828125	-917.7200317382815	-156.1544494628907	1461.460693359375	-1103.289794921875	-214.036605834961	1342.14794921875	-1278.643676757813	-196.5238342285157	1295.66943359375	-1276.95458984375	-232.7453002929688	1295.613647460938	-1325.313842773438	-247.2051239013672	1234.559204101563	-1358.6484375	-332.7951965332032	1243.472900390625	-1339.4130859375	-327.9078674316407	1035.239624023438	-1138.691772460938	-298.1518554687501	975.472106933594	-1184.746337890625	-299.7501831054688	1001.930053710938	-1074.956787109375	-115.8047256469727	1455.05712890625	-734.0537109375001	-198.284652709961	1341.420532226563	-548.8327026367189	-189.9571228027344	1292.736450195313	-554.2845458984376	-226.1469421386719	1292.292114257813	-506.7190856933595	-249.8446502685547	1230.790161132813	-480.2342224121095	-334.7275085449219	1248.177490234375	-498.361297607422	-347.2058715820313	1027.570922851563	-671.6028442382814	-297.2923889160157	975.5615844726565	-637.4196777343751	-303.7577209472657	1012.821044921875	-731.7529907226564	-283.4566955566407	971.0034179687502	-1040.843872070313	-283.9344787597657	971.5625000000002	-780.8034667968752	-447.2707519531251	1113.203002929688	-908.495300292969	-466.3267211914064	1089.257568359375	-936.7282714843752	-469.1168823242189	1086.795043945313	-881.4790649414065	-300.3959960937501	741.1136474609376	-1180.461181640625	-253.5683746337891	755.8842773437501	-1177.852416992188	-310.5734252929688	680.1975708007814	-1180.033569335938	-241.3637390136719	546.3778686523439	-1200.157958984375	-213.1408081054688	501.084930419922	-1082.62646484375	-275.4335327148438	315.8111267089844	-1169.769287109375	-333.1516113281251	299.5233459472657	-1237.225219726563	-301.1172180175782	280.0814514160157	-1209.997924804688	-336.4743347167969	205.5171203613282	-1186.719970703125	-445.8367614746095	129.67578125	-1231.326293945313	-502.7998352050782	79.75910949707033	-1174.54833984375	-291.3086242675782	53.51434326171876	-1215.192016601563	-300.6189880371094	62.14268493652345	-1256.075439453125	-401.9361572265626	116.2620925903321	-1152.493286132813	-317.2204895019532	696.1409301757814	-647.4328002929689	-260.3372192382813	660.1968383789064	-628.4926147460939	-228.6579742431641	671.4279785156251	-630.9949951171876	-259.5308227539063	576.9798583984376	-634.1358642578126	-246.8123321533204	515.5462036132814	-622.4254150390626	-200.8560943603516	487.584930419922	-738.2232055664064	-236.4600677490235	371.3092346191407	-624.7538452148439	-329.4447021484376	322.6034545898438	-602.4802246093751	-288.2669982910157	302.1501159667969	-614.1529541015626	-295.9578552246094	258.3428344726563	-653.9255371093751	-431.3387145996095	117.4484786987305	-620.0778808593751	-387.5156555175782	107.3486099243164	-702.0189208984376	-489.3037719726564	72.11095428466798	-690.1898193359376	-277.4080505371094	59.46244430541994	-608.0035400390626	-293.3667907714844	61.55326461791994	-574.1452026367189	-326.6758728027344	43.24135208129884	-533.9427490234376	-350.9083862304688	802.1155395507815	-1152.422729492188	
1020	5.095	-73.34214019775392	1728.393676757813	-924.968200683594	-205.5633697509766	1608.123413085938	-992.0345458984377	-211.0719299316407	1607.145751953125	-846.579772949219	-270.4138793945313	1515.368408203125	-918.1113891601565	-397.1372375488282	1207.079467773438	-910.6734619140627	-117.3268814086914	1415.529541015625	-917.8945312500002	-156.215576171875	1463.182861328125	-1103.587890625	-213.3032836914063	1343.66162109375	-1278.576538085938	-195.8913879394532	1296.984375	-1276.930053710938	-232.4032287597657	1297.301879882813	-1325.39013671875	-247.5088348388672	1236.173095703125	-1358.693237304688	-332.8031616210938	1245.165649414063	-1339.617065429688	-327.6573486328126	1036.721313476563	-1138.934814453125	-298.0841674804688	976.6834106445315	-1185.011474609375	-299.4183044433594	1003.425170898438	-1075.310180664063	-115.7478713989258	1456.739135742188	-734.1387939453126	-198.3033142089844	1343.33837890625	-549.0007324218751	-190.0837707519532	1294.5263671875	-554.5866088867189	-226.254135131836	1293.995849609375	-507.025115966797	-249.9963378906251	1232.349365234375	-480.4378356933595	-334.9199829101563	1249.996215820313	-498.6204223632814	-347.0705261230469	1029.196533203125	-671.8489379882814	-297.0623474121094	977.1411743164065	-637.5997314453126	-303.5389099121094	1014.437683105469	-731.9444580078126	-282.1957092285157	972.290710449219	-1041.155639648438	-282.8896179199219	973.2991943359377	-780.8615722656252	-447.0628051757814	1114.932861328125	-908.6748046875002	-463.7107849121095	1090.68603515625	-937.2846679687502	-468.034881591797	1088.92724609375	-881.8035888671877	-300.3718566894532	741.5017089843751	-1180.148071289063	-254.4343719482422	756.4164428710939	-1177.846435546875	-311.3527221679688	680.8370971679689	-1179.752197265625	-244.3607940673829	546.9097290039064	-1199.65673828125	-215.1916198730469	501.6036987304689	-1081.946655273438	-276.7110595703126	316.1436462402344	-1169.393920898438	-333.3638305664063	299.1062927246094	-1236.853637695313	-302.2123413085938	280.2738952636719	-1209.674194335938	-337.1964416503907	206.0379028320313	-1186.457641601563	-445.9527893066407	129.2907104492188	-1231.215209960938	-502.9444580078126	79.2164764404297	-1174.420532226563	-291.5162658691407	53.54783248901369	-1215.147216796875	-300.8059997558594	62.07019042968751	-1256.05224609375	-402.3832092285157	115.9705047607422	-1152.318481445313	-318.4719238281251	697.2211303710939	-647.9747314453126	-262.4041748046876	660.2828369140626	-628.8758544921876	-230.1292266845704	671.7658691406251	-631.6539306640626	-261.4564819335938	577.7750244140626	-634.7741088867189	-248.8811950683594	516.1660156250001	-623.0219116210939	-202.4475402832032	488.2734375000001	-738.7136840820314	-237.8141174316407	372.1646423339844	-625.0462646484376	-330.7363281250001	322.7605285644532	-602.7781372070314	-289.2797851562501	302.6651000976563	-614.5207519531251	-296.2953491210938	257.8903808593751	-653.6887207031251	-431.5924072265626	117.2797393798828	-620.1192016601564	-387.7824707031251	107.2075805664063	-702.1378173828126	-489.4364624023439	71.62701416015626	-690.1762695312501	-277.5717163085938	59.43941879272462	-608.0101318359376	-293.4603881835938	61.59083175659181	-574.1188964843751	-326.7842407226563	43.11812210083009	-533.9250488281251	-351.7911071777344	803.7546386718752	-1152.503540039063	
1021	5.100000000000001	-72.90650939941408	1730.148681640625	-925.1123657226565	-205.2032318115235	1610.54345703125	-992.2900390625002	-210.7561035156251	1609.793823242188	-846.873962402344	-270.1924438476563	1517.3896484375	-918.2597656250002	-396.9061279296876	1208.803344726563	-910.8977050781252	-117.3271484375	1417.45654296875	-918.0843505859377	-155.6516418457032	1464.807861328125	-1103.676635742188	-212.9667510986329	1345.087768554688	-1278.725219726563	-195.9518127441407	1298.719482421875	-1277.248046875	-232.3063964843751	1298.855712890625	-1325.692993164063	-246.9354705810547	1237.607177734375	-1358.384887695313	-332.3619995117188	1246.701538085938	-1339.831787109375	-327.0209350585938	1038.423217773438	-1139.289184570313	-297.6879882812501	978.3938598632815	-1185.198974609375	-299.0006408691407	1004.819274902344	-1076.66357421875	-115.7057800292969	1458.471069335938	-734.2257080078126	-198.495590209961	1344.806884765625	-549.2472534179689	-190.1943054199219	1296.17822265625	-554.7201538085939	-226.4494018554688	1295.565551757813	-507.2048950195314	-250.0317535400391	1234.098510742188	-480.7112426757814	-334.9535827636719	1251.25	-498.9933166503907	-346.9147949218751	1030.718627929688	-672.0996093750001	-296.9025268554688	978.5164184570315	-637.8773193359376	-303.1918334960938	1015.940856933594	-732.2546386718751	-281.8176269531251	973.445007324219	-1041.605346679688	-282.9297485351563	974.6294555664065	-781.0717773437502	-446.7419738769532	1116.599365234375	-908.9096679687502	-463.6848144531251	1092.65283203125	-937.4539794921877	-467.7795715332032	1090.7998046875	-882.062927246094	-301.4078979492188	742.5166015625001	-1180.069702148438	-255.8730926513672	757.2722167968751	-1178.064086914063	-313.2517089843751	682.1311035156251	-1179.361206054688	-245.0514678955079	547.2376098632814	-1198.911254882813	-217.5110168457032	501.7651672363282	-1081.56640625	-277.9820861816407	316.3738403320313	-1168.91796875	-335.3038330078126	299.4295043945313	-1236.772216796875	-302.8995971679688	280.4130249023438	-1209.587524414063	-337.9013366699219	205.9412841796876	-1186.241821289063	-446.267303466797	128.7781677246094	-1231.06982421875	-503.2099914550782	78.64779663085939	-1174.325805664063	-291.5611572265626	53.5128860473633	-1215.120727539063	-300.9723510742188	62.0558204650879	-1255.95361328125	-402.8185119628907	115.7270889282227	-1152.193237304688	-319.8265991210938	698.0876464843751	-648.6016235351564	-263.7743530273438	661.1852416992189	-629.4583129882814	-231.6045837402344	672.4468994140626	-632.1455078125001	-263.3610534667969	578.6853637695314	-635.4008789062501	-250.9047241210938	516.9250488281251	-623.5694580078126	-204.9595336914063	489.1020507812501	-739.5219726562501	-239.2926483154297	372.8155822753907	-625.5155639648439	-331.9503479003907	322.9244995117188	-603.2639770507814	-290.3201904296876	303.1567077636719	-614.8028564453126	-297.3297424316407	258.3139648437501	-654.1119384765626	-431.8743591308595	117.1158142089844	-620.1590576171876	-387.8587036132814	106.9691467285157	-702.1246948242189	-489.5698547363282	71.26865386962892	-690.2492675781251	-277.6983032226563	59.40661239624025	-608.0204467773439	-293.5666198730469	61.55996322631837	-574.1422119140626	-326.7916870117188	43.12235641479493	-533.9570922851564	-352.2380981445313	804.951843261719	-1152.366577148438	
